Coordinates
version=1
nRows=7
nColumns=40
inDegrees=yes

Units are S.I. units (second, meters, Newtons, ...)
If the header above contains a line with 'inDegrees', this indicates whether rotational values are in degrees (yes) or radians (no).

endheader
time	pelvis_tilt	pelvis_list	pelvis_rotation	pelvis_tx	pelvis_ty	pelvis_tz	hip_flexion_r	hip_adduction_r	hip_rotation_r	knee_angle_r	knee_angle_r_beta	ankle_angle_r	subtalar_angle_r	mtp_angle_r	hip_flexion_l	hip_adduction_l	hip_rotation_l	knee_angle_l	knee_angle_l_beta	ankle_angle_l	subtalar_angle_l	mtp_angle_l	lumbar_extension	lumbar_bending	lumbar_rotation	arm_flex_r	arm_add_r	arm_rot_r	elbow_flex_r	pro_sup_r	wrist_flex_r	wrist_dev_r	arm_flex_l	arm_add_l	arm_rot_l	elbow_flex_l	pro_sup_l	wrist_flex_l	wrist_dev_l
      2.29000000	     -5.20328559	    -11.69672830	     89.03314531	      0.17988477	      0.92054516	     -0.13603680	     30.77139345	     -6.98150589	      2.47442340	     56.49426936	      0.98601101	      6.11893388	      0.00000000	      0.00000000	     11.69141369	     10.75634046	     10.00317680	     -2.01011727	     -0.03508316	     -0.70173503	      0.00000000	      0.00000000	      8.12893588	     -7.26969126	      0.29371513	      0.00000000	      0.00000000	      0.00000000	      0.00000000	      0.00000000	      0.00000000	      0.00000000	      0.00000000	      0.00000000	      0.00000000	      0.00000000	      0.00000000	      0.00000000	      0.00000000
      2.30000000	     -5.08720610	    -11.53888820	     89.18123242	      0.17986829	      0.92089889	     -0.14326615	     31.61157245	     -6.95258888	      2.50448530	     55.20198772	      0.96345644	      6.99706718	      0.00000000	      0.00000000	     10.94275921	     10.66746561	     10.28586572	     -2.10032977	     -0.03665767	     -0.30845168	      0.00000000	      0.00000000	      7.79987185	     -7.18019244	      0.12649719	      0.00000000	      0.00000000	      0.00000000	      0.00000000	      0.00000000	      0.00000000	      0.00000000	      0.00000000	      0.00000000	      0.00000000	      0.00000000	      0.00000000	      0.00000000	      0.00000000
      2.31000000	     -5.15255217	    -11.54256722	     89.24686946	      0.17988466	      0.92090613	     -0.15028217	     32.65840988	     -7.07070105	      2.64418463	     53.82963795	      0.93950442	      7.21021698	      0.00000000	      0.00000000	     10.53154670	     10.77683283	     10.05253520	     -1.93902080	     -0.03384230	     -0.17802580	      0.00000000	      0.00000000	      7.65667770	     -7.30060219	      0.15427406	      0.00000000	      0.00000000	      0.00000000	      0.00000000	      0.00000000	      0.00000000	      0.00000000	      0.00000000	      0.00000000	      0.00000000	      0.00000000	      0.00000000	      0.00000000	      0.00000000
      2.32000000	     -4.90454081	    -11.18839313	     89.38584276	      0.18009362	      0.92145699	     -0.15786347	     33.10771684	     -6.86826463	      2.57628113	     52.21280253	      0.91128532	      8.39725058	      0.00000000	      0.00000000	      9.38661066	     10.50055639	     10.87131329	     -2.31985639	     -0.04048913	      0.50732877	      0.00000000	      0.00000000	      7.13873199	     -7.05153918	     -0.01714988	      0.00000000	      0.00000000	      0.00000000	      0.00000000	      0.00000000	      0.00000000	      0.00000000	      0.00000000	      0.00000000	      0.00000000	      0.00000000	      0.00000000	      0.00000000	      0.00000000
      2.33000000	     -4.80691708	    -10.94586733	     89.45697985	      0.18034807	      0.92171582	     -0.16526389	     33.70065269	     -6.77599920	      2.60441012	     50.53499299	      0.88200202	      8.82808678	      0.00000000	      0.00000000	      8.49187594	     10.38335308	     11.20809922	     -2.50705843	     -0.04375642	      0.86733202	      0.00000000	      0.00000000	      6.74047814	     -6.97940728	     -0.06092156	      0.00000000	      0.00000000	      0.00000000	      0.00000000	      0.00000000	      0.00000000	      0.00000000	      0.00000000	      0.00000000	      0.00000000	      0.00000000	      0.00000000	      0.00000000	      0.00000000
      2.34000000	     -4.92759610	    -10.98638118	     89.47546133	      0.18053689	      0.92139787	     -0.17246138	     34.66086577	     -6.88031529	      2.72553235	     48.89882938	      0.85344557	      8.97889997	      0.00000000	      0.00000000	      8.06772447	     10.52726385	     10.97960561	     -2.42597810	     -0.04234131	      1.02064846	      0.00000000	      0.00000000	      6.68367380	     -7.15705601	     -0.01213994	      0.00000000	      0.00000000	      0.00000000	      0.00000000	      0.00000000	      0.00000000	      0.00000000	      0.00000000	      0.00000000	      0.00000000	      0.00000000	      0.00000000	      0.00000000	      0.00000000
      2.35000000	     -4.63471869	    -10.55023091	     89.54678474	      0.18109595	      0.92187945	     -0.18019865	     34.83635120	     -6.52026211	      2.65112971	     46.90794653	      0.81869811	      9.30751084	      0.00000000	      0.00000000	      6.79598410	     10.14793347	     11.74505315	     -2.87933760	     -0.05025392	      1.59261239	      0.00000000	      0.00000000	      6.08064789	     -6.86417938	     -0.08874765	      0.00000000	      0.00000000	      0.00000000	      0.00000000	      0.00000000	      0.00000000	      0.00000000	      0.00000000	      0.00000000	      0.00000000	      0.00000000	      0.00000000	      0.00000000	      0.00000000
